<svg width="42" height="51" viewBox="0 0 42 51" fill="none" xmlns="http://www.w3.org/2000/svg">
<path d="M39.4746 49.8492H34.6698C33.2049 44.8756 33.0095 42.1396 34.6698 37.4367C36.3816 32.1659 36.5576 28.9639 34.6698 22.6218M34.6698 22.6218C33.0574 17.2907 34.312 17.3825 38.2734 16.2153C42.2347 15.0481 41.9178 10.2058 37.0722 9.80887C34.9225 6.15171 33.7594 5.17272 30.2653 5.80484V1.84527C30.2653 1.46505 29.8581 1.22754 29.5403 1.43628C23.6158 5.32756 23.1552 14.0656 22.6341 19.0181M34.6698 22.6218L22.6341 19.0181M0.635507 24.2234C6.12538 27.1356 6.5717 30.3207 3.43833 38.2375C0.407353 48.2448 1.82702 50.6808 9.44437 49.8492V39.8391C8.42182 30.5868 19.0539 22.6218 21.4565 22.6218C22.1673 22.6218 22.4065 21.1809 22.6341 19.0181M28.2138 49.8492H22.8083M17.4029 49.8492H22.8083M22.8083 49.8492C28.2138 44.2435 25.411 36.2355 19.4049 36.2355" stroke="black" stroke-width="1.5"/>
<rect width="1.60161" height="2.40242" rx="0.800806" transform="matrix(-1 0 0 1 34.6201 9.0083)" fill="black"/>
</svg>
